<mxfile host="Electron" modified="2023-11-04T13:56:58.391Z" agent="Mozilla/5.0 (Windows NT 10.0; Win64; x64) AppleWebKit/537.36 (KHTML, like Gecko) draw.io/22.0.2 Chrome/114.0.5735.289 Electron/25.8.4 Safari/537.36" etag="tRaNI4BiRrxL-DQeTxqR" version="22.0.2" type="device">
  <diagram name="Page-1" id="I7Eljf3kJ2i9RLmVxLyb">
    <mxGraphModel dx="864" dy="516" grid="1" gridSize="10" guides="1" tooltips="1" connect="1" arrows="1" fold="1" page="1" pageScale="1" pageWidth="850" pageHeight="1100" math="0" shadow="0">
      <root>
        <mxCell id="0" />
        <mxCell id="1" parent="0" />
        <mxCell id="rCPFOkAspmgrzjUsYiZZ-1" value="Start" style="ellipse;whiteSpace=wrap;html=1;" parent="1" vertex="1">
          <mxGeometry x="350" y="40" width="120" height="60" as="geometry" />
        </mxCell>
        <mxCell id="rCPFOkAspmgrzjUsYiZZ-7" value="" style="edgeStyle=orthogonalEdgeStyle;rounded=0;orthogonalLoop=1;jettySize=auto;html=1;" parent="1" source="rCPFOkAspmgrzjUsYiZZ-2" target="rCPFOkAspmgrzjUsYiZZ-3" edge="1">
          <mxGeometry relative="1" as="geometry" />
        </mxCell>
        <mxCell id="rCPFOkAspmgrzjUsYiZZ-2" value="Input Number1, Number2" style="shape=parallelogram;perimeter=parallelogramPerimeter;whiteSpace=wrap;html=1;fixedSize=1;" parent="1" vertex="1">
          <mxGeometry x="315" y="150" width="190" height="50" as="geometry" />
        </mxCell>
        <mxCell id="rCPFOkAspmgrzjUsYiZZ-3" value="Addition = Number1 + Number2" style="rounded=0;whiteSpace=wrap;html=1;" parent="1" vertex="1">
          <mxGeometry x="310" y="250" width="200" height="60" as="geometry" />
        </mxCell>
        <mxCell id="rCPFOkAspmgrzjUsYiZZ-4" value="Print Addition" style="shape=parallelogram;perimeter=parallelogramPerimeter;whiteSpace=wrap;html=1;fixedSize=1;" parent="1" vertex="1">
          <mxGeometry x="330" y="360" width="150" height="60" as="geometry" />
        </mxCell>
        <mxCell id="rCPFOkAspmgrzjUsYiZZ-6" value="" style="endArrow=classic;html=1;rounded=0;exitX=0.5;exitY=1;exitDx=0;exitDy=0;entryX=0.5;entryY=0;entryDx=0;entryDy=0;" parent="1" source="rCPFOkAspmgrzjUsYiZZ-1" target="rCPFOkAspmgrzjUsYiZZ-2" edge="1">
          <mxGeometry width="50" height="50" relative="1" as="geometry">
            <mxPoint x="400" y="270" as="sourcePoint" />
            <mxPoint x="450" y="220" as="targetPoint" />
          </mxGeometry>
        </mxCell>
        <mxCell id="rCPFOkAspmgrzjUsYiZZ-8" value="" style="endArrow=classic;html=1;rounded=0;exitX=0.5;exitY=1;exitDx=0;exitDy=0;entryX=0.533;entryY=0;entryDx=0;entryDy=0;entryPerimeter=0;" parent="1" source="rCPFOkAspmgrzjUsYiZZ-3" target="rCPFOkAspmgrzjUsYiZZ-4" edge="1">
          <mxGeometry width="50" height="50" relative="1" as="geometry">
            <mxPoint x="420" y="110" as="sourcePoint" />
            <mxPoint x="420" y="160" as="targetPoint" />
          </mxGeometry>
        </mxCell>
        <mxCell id="rCPFOkAspmgrzjUsYiZZ-9" value="End" style="ellipse;whiteSpace=wrap;html=1;" parent="1" vertex="1">
          <mxGeometry x="350" y="460" width="120" height="60" as="geometry" />
        </mxCell>
        <mxCell id="rCPFOkAspmgrzjUsYiZZ-10" value="" style="endArrow=classic;html=1;rounded=0;entryX=0.5;entryY=0;entryDx=0;entryDy=0;" parent="1" target="rCPFOkAspmgrzjUsYiZZ-9" edge="1">
          <mxGeometry width="50" height="50" relative="1" as="geometry">
            <mxPoint x="410" y="420" as="sourcePoint" />
            <mxPoint x="419" y="368" as="targetPoint" />
          </mxGeometry>
        </mxCell>
      </root>
    </mxGraphModel>
  </diagram>
</mxfile>
